<svg id="Warstwa_1" data-name="Warstwa 1" xmlns="http://www.w3.org/2000/svg" viewBox="0 0 431.31 375.54"><defs><style>.cls-1{fill:#5bdd40;}.cls-2{fill:#fff;}.cls-3{fill:gray;opacity:0.4;}</style></defs><title>LOGOHAC</title><polygon class="cls-1" points="154.28 0 67.03 184.46 0 122.67 58.49 148.89 154.28 0"/><path class="cls-2" d="M586,608.45c0,20.81-12.68,31.92-28.15,31.92-16.08,0-27.26-12.45-27.26-30.78,0-19.22,11.89-31.85,28.09-31.85C575.28,577.74,586,590.43,586,608.45Zm-47.12,1c0,13,7,24.59,19.4,24.59s19.43-11.43,19.43-25.21c0-12.07-6.3-24.68-19.33-24.68S538.92,596.14,538.92,609.41Z" transform="translate(-398.83 -449.6)"/><path class="cls-2" d="M642.22,585.34H623.74v-6.61h44.92v6.61H650.1v54h-7.88Z" transform="translate(-398.83 -449.6)"/><path class="cls-2" d="M744.92,611H721.41v21.91h26.3v6.52H713.53V578.73h32.79v6.52H721.41v19.21h23.51Z" transform="translate(-398.83 -449.6)"/><path class="cls-2" d="M827.36,611H803.84v21.91h26.3v6.52H796V578.73h32.79v6.52H803.84v19.21h23.52Z" transform="translate(-398.83 -449.6)"/><polygon class="cls-3" points="220.59 375.54 66.2 191.08 21.66 252.87 70.61 226.65 220.59 375.54"/></svg>