<svg xmlns="http://www.w3.org/2000/svg" viewBox="0 0 1060.48 555.21"><defs><style>.cls-1{fill:#5bdd40;}.cls-2{fill:#fff;}.cls-3{fill:gray;opacity:0.4;}</style></defs><title>Zasób 2</title><g id="Warstwa_2" data-name="Warstwa 2"><g id="Warstwa_1-2" data-name="Warstwa 1"><polygon class="cls-1" points="228.1 0 99.11 272.71 0 181.35 86.48 220.13 228.1 0"/><path class="cls-2" d="M276.78,234.85c0,30.77-18.75,47.2-41.61,47.2-23.79,0-40.31-18.42-40.31-45.52,0-28.41,17.58-47.09,41.53-47.09C260.88,189.44,276.78,208.2,276.78,234.85Zm-69.67,1.41c0,19.19,10.42,36.37,28.69,36.37s28.73-16.9,28.73-37.27c0-17.86-9.32-36.5-28.59-36.5S207.11,216.65,207.11,236.26Z"/><path class="cls-2" d="M359.84,200.69H332.52V190.9h66.41v9.79H371.48v79.89H359.84Z"/><path class="cls-2" d="M511.68,238.54H476.91v32.4H515.8v9.64H465.27V190.9h48.48v9.65H476.91V229h34.77Z"/><path class="cls-2" d="M671.77,280.58V190.9H684.5l28.73,45.33a260.68,260.68,0,0,1,16,29.2l.3-.14c-1-12-1.26-22.91-1.26-36.8V190.9h10.9v89.68H727.41L698.9,235.13c-6.17-10-12.2-20.28-16.68-30l-.4.14c.69,11.36.85,22.17.85,37v38.34Z"/><path class="cls-2" d="M892.43,234.85c0,30.77-18.75,47.2-41.61,47.2-23.79,0-40.31-18.42-40.31-45.52,0-28.41,17.59-47.09,41.53-47.09C876.53,189.44,892.43,208.2,892.43,234.85Zm-69.67,1.41c0,19.19,10.42,36.37,28.69,36.37s28.73-16.9,28.73-37.27c0-17.86-9.32-36.5-28.59-36.5S822.76,216.65,822.76,236.26Z"/><path class="cls-2" d="M973.65,280.58,950.92,190.9H963.2l10.68,45.39c2.58,11.21,5,22.32,6.58,31h.31c1.45-8.91,4.27-19.61,7.29-31.14l12.05-45.25h12l11,45.45c2.5,10.74,4.91,21.31,6.29,30.76h.29c1.79-9.83,4.28-19.82,7.08-31l11.86-45.23h11.89L1035,280.58h-12.09l-11.29-46.66a271.62,271.62,0,0,1-5.93-29.33h-.27a250.27,250.27,0,0,1-6.9,29.32l-12.69,46.67Z"/><polygon class="cls-3" points="326.13 555.21 97.88 282.5 32.02 373.86 104.39 335.08 326.13 555.21"/></g></g></svg>