<svg xmlns="http://www.w3.org/2000/svg" viewBox="0 0 998.12 321.28"><defs><style>.cls-1{fill:#5bdd40;}.cls-2{fill:#fff;}.cls-3{fill:gray;opacity:0.4;}</style></defs><title>Zasób 3</title><g id="Warstwa_2" data-name="Warstwa 2"><g id="Warstwa_1-2" data-name="Warstwa 1"><polygon class="cls-1" points="131.99 0 57.35 157.81 0 104.94 50.04 127.38 131.99 0"/><path class="cls-2" d="M160.16,135.89c0,17.81-10.85,27.32-24.08,27.32-13.76,0-23.32-10.66-23.32-26.34,0-16.44,10.17-27.25,24-27.25C151,109.62,160.16,120.48,160.16,135.89Zm-40.32.82c0,11.11,6,21,16.61,21s16.62-9.78,16.62-21.57c0-10.33-5.39-21.12-16.54-21.12S119.84,125.36,119.84,136.71Z"/><path class="cls-2" d="M208.22,116.13H192.41v-5.66h38.43v5.66H215v46.23h-6.74Z"/><path class="cls-2" d="M276,110.47v51.89h-6.74V110.47Z"/><path class="cls-2" d="M320.27,162.36V110.47h7.37l16.63,26.22a150.81,150.81,0,0,1,9.26,16.9l.17-.08c-.61-6.93-.73-13.25-.73-21.29V110.47h6.31v51.89h-6.81L336,136.06a169.48,169.48,0,0,1-9.66-17.38l-.23.08c.4,6.58.5,12.83.5,21.41v22.19Z"/><path class="cls-2" d="M443.14,160a47.28,47.28,0,0,1-16,2.85c-7.87,0-14.36-2-19.4-6.86-4.48-4.3-7.23-11.19-7.22-19.26,0-15.48,10.67-26.81,28.06-26.81a32.74,32.74,0,0,1,13,2.38l-1.68,5.46a26.42,26.42,0,0,0-11.46-2.22c-12.59,0-20.85,7.84-20.85,20.84,0,13.15,7.89,20.93,20,20.93,4.39,0,7.36-.61,8.91-1.4V140.49h-10.5v-5.37h17.09Z"/><path class="cls-2" d="M534.93,111.18a71.34,71.34,0,0,1,12.89-1.12c7.12,0,11.81,1.36,15,4.27a13,13,0,0,1,4.07,9.87c0,6.82-4.35,11.35-9.78,13.22v.19c4,1.39,6.35,5.13,7.61,10.51,1.71,7.25,2.94,12.21,4,14.24h-7c-.82-1.5-2-5.92-3.41-12.42-1.54-7.11-4.35-9.87-10.42-10.07h-6.34v22.49h-6.7Zm6.7,23.62h6.85c7.17,0,11.72-3.9,11.72-9.85,0-6.74-4.87-9.67-11.93-9.68a28.94,28.94,0,0,0-6.64.59Z"/><path class="cls-2" d="M635.86,138H615.74v18.75h22.5v5.58H609V110.47h28.06v5.58H615.74v16.43h20.12Z"/><path class="cls-2" d="M678.66,154.19a23.31,23.31,0,0,0,12,3.37c6.86,0,10.89-3.58,10.89-8.84,0-4.81-2.81-7.65-9.82-10.27-8.47-3-13.72-7.46-13.72-14.72,0-8.08,6.72-14.07,16.82-14.07a23.73,23.73,0,0,1,11.45,2.51l-1.87,5.49a19.72,19.72,0,0,0-9.8-2.46c-7.13,0-9.82,4.22-9.82,7.76,0,4.81,3.16,7.19,10.32,10,8.8,3.45,13.24,7.68,13.24,15.29,0,8-5.87,15-18.16,15-5,0-10.49-1.51-13.26-3.39Z"/><path class="cls-2" d="M756.84,110.47v30.75c0,11.58,5.14,16.49,12.13,16.49,7.64,0,12.62-5.09,12.62-16.49V110.47h6.74v30.28c0,15.95-8.38,22.46-19.64,22.46-10.59,0-18.59-6.05-18.59-22.17V110.47Z"/><path class="cls-2" d="M832.59,110.47h6.74v46.24h22.19v5.65H832.59Z"/><path class="cls-2" d="M908.32,116.13h-15.8v-5.66H931v5.66H915.06v46.23h-6.74Z"/><path class="cls-2" d="M968.46,154.19a23.32,23.32,0,0,0,12,3.37c6.85,0,10.88-3.58,10.88-8.84,0-4.81-2.81-7.65-9.81-10.27-8.47-3-13.73-7.46-13.73-14.72,0-8.08,6.72-14.07,16.83-14.07a23.76,23.76,0,0,1,11.45,2.51l-1.88,5.49a19.68,19.68,0,0,0-9.79-2.46c-7.13,0-9.83,4.22-9.83,7.76,0,4.81,3.16,7.19,10.33,10,8.8,3.45,13.23,7.68,13.23,15.29,0,8-5.86,15-18.16,15-5,0-10.49-1.51-13.26-3.39Z"/><polygon class="cls-3" points="188.72 321.28 56.64 163.47 18.53 216.34 60.41 193.9 188.72 321.28"/></g></g></svg>